<?xml version="1.0" standalone="no"?>
<!DOCTYPE svg PUBLIC "-//W3C//DTD SVG 20010904//EN"
 "http://www.w3.org/TR/2001/REC-SVG-20010904/DTD/svg10.dtd">
<svg version="1.0" xmlns="http://www.w3.org/2000/svg"
 width="1548.000000pt" height="1548.000000pt" viewBox="0 0 1548.000000 1548.000000"
 preserveAspectRatio="xMidYMid meet">
<metadata>
Created by potrace 1.11, written by Peter Selinger 2001-2013
</metadata>
<g transform="translate(0.000000,1548.000000) scale(0.100000,-0.100000)"
fill="#000000" stroke="none">
<path d="M0 7740 l0 -7740 7740 0 7740 0 0 7740 0 7740 -7740 0 -7740 0 0
-7740z m8180 3785 c1302 -158 2427 -959 2990 -2130 78 -161 116 -252 109 -259
-3 -3 -3035 -1199 -3120 -1231 -12 -5 -24 8 -46 47 -41 72 -119 143 -201 181
-62 30 -75 32 -172 32 -97 0 -110 -2 -173 -32 -144 -69 -243 -206 -254 -355
-14 -185 80 -347 247 -427 71 -34 81 -36 175 -36 74 0 113 5 150 19 107 41
191 117 240 217 l31 66 1612 -477 c887 -262 1615 -479 1618 -483 10 -9 -88
-288 -153 -436 -269 -620 -707 -1166 -1255 -1564 -1003 -730 -2305 -923 -3483
-516 -567 195 -1055 505 -1480 940 -224 229 -390 444 -545 705 -525 882 -674
1927 -415 2919 174 669 533 1282 1037 1770 634 616 1454 987 2348 1064 154 14
581 6 740 -14z"/>
<path d="M7490 10580 c-512 -49 -1003 -232 -1415 -528 -271 -194 -538 -475
-723 -760 -736 -1131 -575 -2628 385 -3579 782 -774 1953 -1027 2991 -646 167
61 438 199 582 295 245 164 471 369 643 583 75 94 85 111 70 117 -10 4 -371
112 -801 239 l-784 231 -96 -45 c-216 -100 -362 -132 -602 -132 -195 0 -273
12 -447 70 -300 100 -555 301 -735 581 -76 117 -150 308 -184 469 -26 125 -27
404 -1 525 62 289 185 519 386 721 398 398 988 517 1510 305 l58 -23 769 303
c423 167 774 305 779 308 6 2 -42 56 -105 121 -382 389 -853 655 -1381 779
-258 61 -648 90 -899 66z"/>
</g>
</svg>
